<svg fill="#fff" xmlns="http://www.w3.org/2000/svg" viewBox="0 0 24 24"><path d="M10.5 2A1.5 1.5 0 0 0 9 3.5 1.5 1.5 0 0 0 10.5 5 1.5 1.5 0 0 0 12 3.5 1.5 1.5 0 0 0 10.5 2zM15 5.75a1.75 1.75 0 0 0-1.75 1.75A1.75 1.75 0 0 0 15 9.25a1.75 1.75 0 0 0 1.75-1.75A1.75 1.75 0 0 0 15 5.75zM10.5 6A1.5 1.5 0 0 0 9 7.5 1.5 1.5 0 0 0 10.5 9 1.5 1.5 0 0 0 12 7.5 1.5 1.5 0 0 0 10.5 6zm-4 .25A1.25 1.25 0 0 0 5.25 7.5 1.25 1.25 0 0 0 6.5 8.75 1.25 1.25 0 0 0 7.75 7.5 1.25 1.25 0 0 0 6.5 6.25zM20 9.5a2 2 0 0 0-2 2 2 2 0 0 0 2 2 2 2 0 0 0 2-2 2 2 0 0 0-2-2zm-5 .25a1.75 1.75 0 0 0-1.75 1.75A1.75 1.75 0 0 0 15 13.25a1.75 1.75 0 0 0 1.75-1.75A1.75 1.75 0 0 0 15 9.75zm-4.5.25A1.5 1.5 0 0 0 9 11.5a1.5 1.5 0 0 0 1.5 1.5 1.5 1.5 0 0 0 1.5-1.5 1.5 1.5 0 0 0-1.5-1.5zm-7.5.25a1.25 1.25 0 0 0-1.25 1.25A1.25 1.25 0 0 0 3 12.75a1.25 1.25 0 0 0 1.25-1.25A1.25 1.25 0 0 0 3 10.25zm3.5 0a1.25 1.25 0 0 0-1.25 1.25 1.25 1.25 0 0 0 1.25 1.25 1.25 1.25 0 0 0 1.25-1.25 1.25 1.25 0 0 0-1.25-1.25zm8.5 3.5a1.75 1.75 0 0 0-1.75 1.75A1.75 1.75 0 0 0 15 17.25a1.75 1.75 0 0 0 1.75-1.75A1.75 1.75 0 0 0 15 13.75zm-4.5.25A1.5 1.5 0 0 0 9 15.5a1.5 1.5 0 0 0 1.5 1.5 1.5 1.5 0 0 0 1.5-1.5 1.5 1.5 0 0 0-1.5-1.5zm-4 .25a1.25 1.25 0 0 0-1.25 1.25 1.25 1.25 0 0 0 1.25 1.25 1.25 1.25 0 0 0 1.25-1.25 1.25 1.25 0 0 0-1.25-1.25zm4 3.75A1.5 1.5 0 0 0 9 19.5a1.5 1.5 0 0 0 1.5 1.5 1.5 1.5 0 0 0 1.5-1.5 1.5 1.5 0 0 0-1.5-1.5z"/></svg>