<svg height="512" viewBox="0 0 24 24" width="512" xmlns="http://www.w3.org/2000/svg"><path d="M20.25 24H8.75A2.752 2.752 0 016 21.25V5.75A2.752 2.752 0 018.75 3h11.5A2.752 2.752 0 0123 5.75v15.5A2.752 2.752 0 0120.25 24zM8.75 4.5c-.689 0-1.25.561-1.25 1.25v15.5c0 .689.561 1.25 1.25 1.25h11.5c.689 0 1.25-.561 1.25-1.25V5.75c0-.689-.561-1.25-1.25-1.25z"/><path d="M13.25 12.25h-3.5A.75.75 0 019 11.5V8a.75.75 0 01.75-.75h3.5A.75.75 0 0114 8v3.5a.75.75 0 01-.75.75zm-2.75-1.5h2v-2h-2zM19.5 12h-3a.75.75 0 010-1.5h3a.75.75 0 010 1.5zM19.5 9h-3a.75.75 0 010-1.5h3a.75.75 0 010 1.5zM19.25 20h-9.5a.75.75 0 010-1.5h9.5a.75.75 0 010 1.5zM19.25 16h-9.5a.75.75 0 010-1.5h9.5a.75.75 0 010 1.5z"/><path d="M3.75 21A2.752 2.752 0 011 18.25V2.75A2.752 2.752 0 013.75 0h11.5a.75.75 0 010 1.5H3.75c-.689 0-1.25.561-1.25 1.25v15.5c0 .689.561 1.25 1.25 1.25a.75.75 0 010 1.5z"/></svg>