<?xml version="1.0" encoding="UTF-8"?>
<svg xmlns="http://www.w3.org/2000/svg" xmlns:xlink="http://www.w3.org/1999/xlink" viewBox="0 0 80 80" width="80px" height="80px">
<g id="surface53514845">
<path style="fill-rule:nonzero;fill:rgb(0%,0%,0%);fill-opacity:1;stroke-width:1;stroke-linecap:butt;stroke-linejoin:round;stroke:rgb(80.000001%,80.000001%,80.000001%);stroke-opacity:1;stroke-miterlimit:10;" d="M 85.9831 46.804474 C 94.330843 40.383134 104.765521 36.547228 116.095807 36.547228 C 143.386504 36.547228 165.548578 58.717751 165.548578 85.999999 C 165.548578 113.282246 143.386504 135.452769 116.095807 135.452769 C 104.765521 135.452769 94.330843 131.616863 85.9831 125.195523 C 77.643807 131.599965 67.217578 135.452769 55.90419 135.452769 C 28.613493 135.452769 6.451419 113.282246 6.451419 85.999999 C 6.451419 58.717751 28.613493 36.547228 55.90419 36.547228 C 67.217578 36.547228 77.643807 40.400032 85.9831 46.804474 Z M 10.752028 85.999999 C 10.752028 110.958735 30.937004 131.152161 55.90419 131.152161 C 65.916411 131.152161 75.125965 127.865448 82.611897 122.365063 C 72.802454 113.324492 66.651486 100.371972 66.651486 85.999999 C 66.651486 71.628025 72.802454 58.675505 82.611897 49.634934 C 75.125965 44.134549 65.916411 40.847836 55.90419 40.847836 C 30.937004 40.847836 10.752028 61.041262 10.752028 85.999999 Z M 72.151871 75.658261 C 72.709514 76.046921 73.098174 76.663707 73.098174 77.398782 C 73.098174 78.412678 72.379997 79.232244 71.425246 79.451921 C 71.121077 81.589552 70.952094 83.777877 70.952094 85.999999 C 70.952094 86.726624 70.968992 87.4448 71.002789 88.162976 C 72.16032 88.196773 73.098174 89.134627 73.098174 90.300607 C 73.098174 91.322952 72.363099 92.142518 71.399898 92.353746 C 72.177218 97.854131 73.934638 103.033449 76.503174 107.705819 C 76.773546 107.579082 77.077715 107.50304 77.398782 107.50304 C 78.59011 107.50304 79.553311 108.466241 79.553311 109.649119 C 79.553311 110.341948 79.206896 110.924938 78.699948 111.313598 C 79.663149 112.741502 80.72774 114.084914 81.843025 115.38608 C 82.138745 114.549616 82.916065 113.949728 83.853919 113.949728 C 85.036797 113.949728 85.999999 114.912929 85.999999 116.095807 C 85.999999 117.092805 85.30717 117.895472 84.394663 118.140497 C 85.645135 119.38252 86.996996 120.523152 88.391103 121.61309 C 88.737517 120.903363 89.455694 120.396415 90.300607 120.396415 C 91.483485 120.396415 92.446686 121.359617 92.446686 122.550944 C 92.446686 123.133934 92.210111 123.65778 91.838349 124.046441 C 93.511277 125.111031 95.260247 126.074232 97.076811 126.919145 C 97.541513 126.995188 97.96397 127.172619 98.276588 127.493686 C 101.377419 128.8202 104.655682 129.808749 108.069132 130.425535 C 107.722717 130.045324 107.50304 129.555275 107.50304 128.997632 C 107.50304 127.814753 108.466241 126.851552 109.649119 126.851552 C 110.840447 126.851552 111.803648 127.814753 111.803648 128.997632 C 111.803648 129.79185 111.355844 130.450883 110.722159 130.822645 C 112.488028 131.033873 114.279244 131.152161 116.095807 131.152161 C 117.92082 131.152161 119.712036 131.033873 121.477904 130.822645 C 120.844219 130.450883 120.396415 129.79185 120.396415 128.997632 C 120.396415 127.814753 121.359617 126.851552 122.550944 126.851552 C 123.733823 126.851552 124.697024 127.814753 124.697024 128.997632 C 124.697024 129.555275 124.477346 130.045324 124.130932 130.425535 C 127.544381 129.808749 130.822645 128.8202 133.923476 127.493686 C 134.236094 127.172619 134.658551 126.995188 135.123253 126.919145 C 136.939816 126.074232 138.688787 125.111031 140.361715 124.046441 C 139.989953 123.65778 139.753377 123.133934 139.753377 122.550944 C 139.753377 121.359617 140.716578 120.396415 141.899457 120.396415 C 142.74437 120.396415 143.462546 120.903363 143.808961 121.61309 C 145.203067 120.523152 146.554929 119.38252 147.8054 118.140497 C 146.892894 117.895472 146.200065 117.092805 146.200065 116.095807 C 146.200065 114.912929 147.163266 113.949728 148.346145 113.949728 C 149.283998 113.949728 150.061318 114.549616 150.357038 115.38608 C 151.472323 114.084914 152.536914 112.741502 153.500115 111.313598 C 152.993167 110.924938 152.646753 110.341948 152.646753 109.649119 C 152.646753 108.466241 153.609954 107.50304 154.801282 107.50304 C 155.122349 107.50304 155.426517 107.579082 155.69689 107.705819 C 158.265426 103.033449 160.022845 97.854131 160.800165 92.353746 C 159.836964 92.142518 159.10189 91.322952 159.10189 90.300607 C 159.10189 89.134627 160.039743 88.196773 161.197275 88.162976 C 161.231071 87.4448 161.247969 86.726624 161.247969 85.999999 C 161.247969 83.777877 161.078987 81.589552 160.774818 79.451921 C 159.820066 79.232244 159.10189 78.412678 159.10189 77.398782 C 159.10189 76.663707 159.49055 76.046921 160.048193 75.658261 C 155.384272 55.692962 137.497459 40.847836 116.095807 40.847836 C 94.702605 40.847836 76.815792 55.692962 72.151871 75.658261 Z M 105.348511 45.148445 C 105.348511 46.339772 104.38531 47.302973 103.202432 47.302973 C 102.011104 47.302973 101.047903 46.339772 101.047903 45.148445 C 101.047903 43.965566 102.011104 43.002365 103.202432 43.002365 C 104.38531 43.002365 105.348511 43.965566 105.348511 45.148445 Z M 118.250336 45.148445 C 118.250336 46.339772 117.287135 47.302973 116.095807 47.302973 C 114.912929 47.302973 113.949728 46.339772 113.949728 45.148445 C 113.949728 43.965566 114.912929 43.002365 116.095807 43.002365 C 117.287135 43.002365 118.250336 43.965566 118.250336 45.148445 Z M 131.152161 45.148445 C 131.152161 46.339772 130.18896 47.302973 128.997632 47.302973 C 127.814753 47.302973 126.851552 46.339772 126.851552 45.148445 C 126.851552 43.965566 127.814753 43.002365 128.997632 43.002365 C 130.18896 43.002365 131.152161 43.965566 131.152161 45.148445 Z M 98.901823 51.603582 C 98.901823 52.78646 97.938622 53.749661 96.747295 53.749661 C 95.564416 53.749661 94.601215 52.78646 94.601215 51.603582 C 94.601215 50.412254 95.564416 49.449053 96.747295 49.449053 C 97.938622 49.449053 98.901823 50.412254 98.901823 51.603582 Z M 111.803648 51.603582 C 111.803648 52.78646 110.840447 53.749661 109.649119 53.749661 C 108.466241 53.749661 107.50304 52.78646 107.50304 51.603582 C 107.50304 50.412254 108.466241 49.449053 109.649119 49.449053 C 110.840447 49.449053 111.803648 50.412254 111.803648 51.603582 Z M 124.697024 51.603582 C 124.697024 52.78646 123.733823 53.749661 122.550944 53.749661 C 121.359617 53.749661 120.396415 52.78646 120.396415 51.603582 C 120.396415 50.412254 121.359617 49.449053 122.550944 49.449053 C 123.733823 49.449053 124.697024 50.412254 124.697024 51.603582 Z M 137.598849 51.603582 C 137.598849 52.78646 136.635647 53.749661 135.452769 53.749661 C 134.261441 53.749661 133.29824 52.78646 133.29824 51.603582 C 133.29824 50.412254 134.261441 49.449053 135.452769 49.449053 C 136.635647 49.449053 137.598849 50.412254 137.598849 51.603582 Z M 92.446686 58.050269 C 92.446686 59.233148 91.483485 60.196349 90.300607 60.196349 C 89.109279 60.196349 88.146078 59.233148 88.146078 58.050269 C 88.146078 56.867391 89.109279 55.90419 90.300607 55.90419 C 91.483485 55.90419 92.446686 56.867391 92.446686 58.050269 Z M 105.348511 58.050269 C 105.348511 59.233148 104.38531 60.196349 103.202432 60.196349 C 102.011104 60.196349 101.047903 59.233148 101.047903 58.050269 C 101.047903 56.867391 102.011104 55.90419 103.202432 55.90419 C 104.38531 55.90419 105.348511 56.867391 105.348511 58.050269 Z M 118.250336 58.050269 C 118.250336 59.233148 117.287135 60.196349 116.095807 60.196349 C 114.912929 60.196349 113.949728 59.233148 113.949728 58.050269 C 113.949728 56.867391 114.912929 55.90419 116.095807 55.90419 C 117.287135 55.90419 118.250336 56.867391 118.250336 58.050269 Z M 131.152161 58.050269 C 131.152161 59.233148 130.18896 60.196349 128.997632 60.196349 C 127.814753 60.196349 126.851552 59.233148 126.851552 58.050269 C 126.851552 56.867391 127.814753 55.90419 128.997632 55.90419 C 130.18896 55.90419 131.152161 56.867391 131.152161 58.050269 Z M 144.053985 58.050269 C 144.053985 59.233148 143.090784 60.196349 141.899457 60.196349 C 140.716578 60.196349 139.753377 59.233148 139.753377 58.050269 C 139.753377 56.867391 140.716578 55.90419 141.899457 55.90419 C 143.090784 55.90419 144.053985 56.867391 144.053985 58.050269 Z M 85.999999 64.496957 C 85.999999 65.688285 85.036797 66.651486 83.853919 66.651486 C 82.662591 66.651486 81.69939 65.688285 81.69939 64.496957 C 81.69939 63.314079 82.662591 62.350878 83.853919 62.350878 C 85.036797 62.350878 85.999999 63.314079 85.999999 64.496957 Z M 98.901823 64.496957 C 98.901823 65.688285 97.938622 66.651486 96.747295 66.651486 C 95.564416 66.651486 94.601215 65.688285 94.601215 64.496957 C 94.601215 63.314079 95.564416 62.350878 96.747295 62.350878 C 97.938622 62.350878 98.901823 63.314079 98.901823 64.496957 Z M 111.803648 64.496957 C 111.803648 65.688285 110.840447 66.651486 109.649119 66.651486 C 108.466241 66.651486 107.50304 65.688285 107.50304 64.496957 C 107.50304 63.314079 108.466241 62.350878 109.649119 62.350878 C 110.840447 62.350878 111.803648 63.314079 111.803648 64.496957 Z M 124.697024 64.496957 C 124.697024 65.688285 123.733823 66.651486 122.550944 66.651486 C 121.359617 66.651486 120.396415 65.688285 120.396415 64.496957 C 120.396415 63.314079 121.359617 62.350878 122.550944 62.350878 C 123.733823 62.350878 124.697024 63.314079 124.697024 64.496957 Z M 137.598849 64.496957 C 137.598849 65.688285 136.635647 66.651486 135.452769 66.651486 C 134.261441 66.651486 133.29824 65.688285 133.29824 64.496957 C 133.29824 63.314079 134.261441 62.350878 135.452769 62.350878 C 136.635647 62.350878 137.598849 63.314079 137.598849 64.496957 Z M 150.500673 64.496957 C 150.500673 65.688285 149.537472 66.651486 148.346145 66.651486 C 147.163266 66.651486 146.200065 65.688285 146.200065 64.496957 C 146.200065 63.314079 147.163266 62.350878 148.346145 62.350878 C 149.537472 62.350878 150.500673 63.314079 150.500673 64.496957 Z M 79.553311 70.952094 C 79.553311 72.134973 78.59011 73.098174 77.398782 73.098174 C 76.215903 73.098174 75.252702 72.134973 75.252702 70.952094 C 75.252702 69.760767 76.215903 68.797565 77.398782 68.797565 C 78.59011 68.797565 79.553311 69.760767 79.553311 70.952094 Z M 92.446686 70.952094 C 92.446686 72.134973 91.483485 73.098174 90.300607 73.098174 C 89.109279 73.098174 88.146078 72.134973 88.146078 70.952094 C 88.146078 69.760767 89.109279 68.797565 90.300607 68.797565 C 91.483485 68.797565 92.446686 69.760767 92.446686 70.952094 Z M 105.348511 70.952094 C 105.348511 72.134973 104.38531 73.098174 103.202432 73.098174 C 102.011104 73.098174 101.047903 72.134973 101.047903 70.952094 C 101.047903 69.760767 102.011104 68.797565 103.202432 68.797565 C 104.38531 68.797565 105.348511 69.760767 105.348511 70.952094 Z M 118.250336 70.952094 C 118.250336 72.134973 117.287135 73.098174 116.095807 73.098174 C 114.912929 73.098174 113.949728 72.134973 113.949728 70.952094 C 113.949728 69.760767 114.912929 68.797565 116.095807 68.797565 C 117.287135 68.797565 118.250336 69.760767 118.250336 70.952094 Z M 131.152161 70.952094 C 131.152161 72.134973 130.18896 73.098174 128.997632 73.098174 C 127.814753 73.098174 126.851552 72.134973 126.851552 70.952094 C 126.851552 69.760767 127.814753 68.797565 128.997632 68.797565 C 130.18896 68.797565 131.152161 69.760767 131.152161 70.952094 Z M 144.053985 70.952094 C 144.053985 72.134973 143.090784 73.098174 141.899457 73.098174 C 140.716578 73.098174 139.753377 72.134973 139.753377 70.952094 C 139.753377 69.760767 140.716578 68.797565 141.899457 68.797565 C 143.090784 68.797565 144.053985 69.760767 144.053985 70.952094 Z M 156.947361 70.952094 C 156.947361 72.134973 155.98416 73.098174 154.801282 73.098174 C 153.609954 73.098174 152.646753 72.134973 152.646753 70.952094 C 152.646753 69.760767 153.609954 68.797565 154.801282 68.797565 C 155.98416 68.797565 156.947361 69.760767 156.947361 70.952094 Z M 85.999999 77.398782 C 85.999999 78.59011 85.036797 79.553311 83.853919 79.553311 C 82.662591 79.553311 81.69939 78.59011 81.69939 77.398782 C 81.69939 76.215903 82.662591 75.252702 83.853919 75.252702 C 85.036797 75.252702 85.999999 76.215903 85.999999 77.398782 Z M 98.901823 77.398782 C 98.901823 78.59011 97.938622 79.553311 96.747295 79.553311 C 95.564416 79.553311 94.601215 78.59011 94.601215 77.398782 C 94.601215 76.215903 95.564416 75.252702 96.747295 75.252702 C 97.938622 75.252702 98.901823 76.215903 98.901823 77.398782 Z M 111.803648 77.398782 C 111.803648 78.59011 110.840447 79.553311 109.649119 79.553311 C 108.466241 79.553311 107.50304 78.59011 107.50304 77.398782 C 107.50304 76.215903 108.466241 75.252702 109.649119 75.252702 C 110.840447 75.252702 111.803648 76.215903 111.803648 77.398782 Z M 124.697024 77.398782 C 124.697024 78.59011 123.733823 79.553311 122.550944 79.553311 C 121.359617 79.553311 120.396415 78.59011 120.396415 77.398782 C 120.396415 76.215903 121.359617 75.252702 122.550944 75.252702 C 123.733823 75.252702 124.697024 76.215903 124.697024 77.398782 Z M 137.598849 77.398782 C 137.598849 78.59011 136.635647 79.553311 135.452769 79.553311 C 134.261441 79.553311 133.29824 78.59011 133.29824 77.398782 C 133.29824 76.215903 134.261441 75.252702 135.452769 75.252702 C 136.635647 75.252702 137.598849 76.215903 137.598849 77.398782 Z M 150.500673 77.398782 C 150.500673 78.59011 149.537472 79.553311 148.346145 79.553311 C 147.163266 79.553311 146.200065 78.59011 146.200065 77.398782 C 146.200065 76.215903 147.163266 75.252702 148.346145 75.252702 C 149.537472 75.252702 150.500673 76.215903 150.500673 77.398782 Z M 79.553311 83.853919 C 79.553311 85.036797 78.59011 85.999999 77.398782 85.999999 C 76.215903 85.999999 75.252702 85.036797 75.252702 83.853919 C 75.252702 82.662591 76.215903 81.69939 77.398782 81.69939 C 78.59011 81.69939 79.553311 82.662591 79.553311 83.853919 Z M 92.446686 83.853919 C 92.446686 85.036797 91.483485 85.999999 90.300607 85.999999 C 89.109279 85.999999 88.146078 85.036797 88.146078 83.853919 C 88.146078 82.662591 89.109279 81.69939 90.300607 81.69939 C 91.483485 81.69939 92.446686 82.662591 92.446686 83.853919 Z M 105.348511 83.853919 C 105.348511 85.036797 104.38531 85.999999 103.202432 85.999999 C 102.011104 85.999999 101.047903 85.036797 101.047903 83.853919 C 101.047903 82.662591 102.011104 81.69939 103.202432 81.69939 C 104.38531 81.69939 105.348511 82.662591 105.348511 83.853919 Z M 118.250336 83.853919 C 118.250336 85.036797 117.287135 85.999999 116.095807 85.999999 C 114.912929 85.999999 113.949728 85.036797 113.949728 83.853919 C 113.949728 82.662591 114.912929 81.69939 116.095807 81.69939 C 117.287135 81.69939 118.250336 82.662591 118.250336 83.853919 Z M 131.152161 83.853919 C 131.152161 85.036797 130.18896 85.999999 128.997632 85.999999 C 127.814753 85.999999 126.851552 85.036797 126.851552 83.853919 C 126.851552 82.662591 127.814753 81.69939 128.997632 81.69939 C 130.18896 81.69939 131.152161 82.662591 131.152161 83.853919 Z M 144.053985 83.853919 C 144.053985 85.036797 143.090784 85.999999 141.899457 85.999999 C 140.716578 85.999999 139.753377 85.036797 139.753377 83.853919 C 139.753377 82.662591 140.716578 81.69939 141.899457 81.69939 C 143.090784 81.69939 144.053985 82.662591 144.053985 83.853919 Z M 156.947361 83.853919 C 156.947361 85.036797 155.98416 85.999999 154.801282 85.999999 C 153.609954 85.999999 152.646753 85.036797 152.646753 83.853919 C 152.646753 82.662591 153.609954 81.69939 154.801282 81.69939 C 155.98416 81.69939 156.947361 82.662591 156.947361 83.853919 Z M 85.999999 90.300607 C 85.999999 91.483485 85.036797 92.446686 83.853919 92.446686 C 82.662591 92.446686 81.69939 91.483485 81.69939 90.300607 C 81.69939 89.109279 82.662591 88.146078 83.853919 88.146078 C 85.036797 88.146078 85.999999 89.109279 85.999999 90.300607 Z M 98.901823 90.300607 C 98.901823 91.483485 97.938622 92.446686 96.747295 92.446686 C 95.564416 92.446686 94.601215 91.483485 94.601215 90.300607 C 94.601215 89.109279 95.564416 88.146078 96.747295 88.146078 C 97.938622 88.146078 98.901823 89.109279 98.901823 90.300607 Z M 111.803648 90.300607 C 111.803648 91.483485 110.840447 92.446686 109.649119 92.446686 C 108.466241 92.446686 107.50304 91.483485 107.50304 90.300607 C 107.50304 89.109279 108.466241 88.146078 109.649119 88.146078 C 110.840447 88.146078 111.803648 89.109279 111.803648 90.300607 Z M 124.697024 90.300607 C 124.697024 91.483485 123.733823 92.446686 122.550944 92.446686 C 121.359617 92.446686 120.396415 91.483485 120.396415 90.300607 C 120.396415 89.109279 121.359617 88.146078 122.550944 88.146078 C 123.733823 88.146078 124.697024 89.109279 124.697024 90.300607 Z M 137.598849 90.300607 C 137.598849 91.483485 136.635647 92.446686 135.452769 92.446686 C 134.261441 92.446686 133.29824 91.483485 133.29824 90.300607 C 133.29824 89.109279 134.261441 88.146078 135.452769 88.146078 C 136.635647 88.146078 137.598849 89.109279 137.598849 90.300607 Z M 150.500673 90.300607 C 150.500673 91.483485 149.537472 92.446686 148.346145 92.446686 C 147.163266 92.446686 146.200065 91.483485 146.200065 90.300607 C 146.200065 89.109279 147.163266 88.146078 148.346145 88.146078 C 149.537472 88.146078 150.500673 89.109279 150.500673 90.300607 Z M 79.553311 96.747295 C 79.553311 97.938622 78.59011 98.901823 77.398782 98.901823 C 76.215903 98.901823 75.252702 97.938622 75.252702 96.747295 C 75.252702 95.564416 76.215903 94.601215 77.398782 94.601215 C 78.59011 94.601215 79.553311 95.564416 79.553311 96.747295 Z M 92.446686 96.747295 C 92.446686 97.938622 91.483485 98.901823 90.300607 98.901823 C 89.109279 98.901823 88.146078 97.938622 88.146078 96.747295 C 88.146078 95.564416 89.109279 94.601215 90.300607 94.601215 C 91.483485 94.601215 92.446686 95.564416 92.446686 96.747295 Z M 105.348511 96.747295 C 105.348511 97.938622 104.38531 98.901823 103.202432 98.901823 C 102.011104 98.901823 101.047903 97.938622 101.047903 96.747295 C 101.047903 95.564416 102.011104 94.601215 103.202432 94.601215 C 104.38531 94.601215 105.348511 95.564416 105.348511 96.747295 Z M 118.250336 96.747295 C 118.250336 97.938622 117.287135 98.901823 116.095807 98.901823 C 114.912929 98.901823 113.949728 97.938622 113.949728 96.747295 C 113.949728 95.564416 114.912929 94.601215 116.095807 94.601215 C 117.287135 94.601215 118.250336 95.564416 118.250336 96.747295 Z M 131.152161 96.747295 C 131.152161 97.938622 130.18896 98.901823 128.997632 98.901823 C 127.814753 98.901823 126.851552 97.938622 126.851552 96.747295 C 126.851552 95.564416 127.814753 94.601215 128.997632 94.601215 C 130.18896 94.601215 131.152161 95.564416 131.152161 96.747295 Z M 144.053985 97.110607 C 144.053985 98.301935 143.090784 99.265136 141.899457 99.265136 C 140.716578 99.265136 139.753377 98.301935 139.753377 97.110607 C 139.753377 95.91928 140.716578 94.964528 141.899457 94.964528 C 143.090784 94.964528 144.053985 95.927729 144.053985 97.110607 Z M 156.947361 97.110607 C 156.947361 98.301935 155.98416 99.265136 154.801282 99.265136 C 153.609954 99.265136 152.646753 98.301935 152.646753 97.110607 C 152.646753 95.91928 153.609954 94.964528 154.801282 94.964528 C 155.98416 94.964528 156.947361 95.927729 156.947361 97.110607 Z M 85.999999 103.202432 C 85.999999 104.38531 85.036797 105.348511 83.853919 105.348511 C 82.662591 105.348511 81.69939 104.38531 81.69939 103.202432 C 81.69939 102.011104 82.662591 101.047903 83.853919 101.047903 C 85.036797 101.047903 85.999999 102.011104 85.999999 103.202432 Z M 98.901823 103.202432 C 98.901823 104.38531 97.938622 105.348511 96.747295 105.348511 C 95.564416 105.348511 94.601215 104.38531 94.601215 103.202432 C 94.601215 102.011104 95.564416 101.047903 96.747295 101.047903 C 97.938622 101.047903 98.901823 102.011104 98.901823 103.202432 Z M 111.803648 103.202432 C 111.803648 104.38531 110.840447 105.348511 109.649119 105.348511 C 108.466241 105.348511 107.50304 104.38531 107.50304 103.202432 C 107.50304 102.011104 108.466241 101.047903 109.649119 101.047903 C 110.840447 101.047903 111.803648 102.011104 111.803648 103.202432 Z M 124.697024 103.202432 C 124.697024 104.38531 123.733823 105.348511 122.550944 105.348511 C 121.359617 105.348511 120.396415 104.38531 120.396415 103.202432 C 120.396415 102.011104 121.359617 101.047903 122.550944 101.047903 C 123.733823 101.047903 124.697024 102.011104 124.697024 103.202432 Z M 137.598849 103.202432 C 137.598849 104.38531 136.635647 105.348511 135.452769 105.348511 C 134.261441 105.348511 133.29824 104.38531 133.29824 103.202432 C 133.29824 102.011104 134.261441 101.047903 135.452769 101.047903 C 136.635647 101.047903 137.598849 102.011104 137.598849 103.202432 Z M 150.500673 103.557295 C 150.500673 104.748623 149.537472 105.711824 148.346145 105.711824 C 147.163266 105.711824 146.200065 104.748623 146.200065 103.557295 C 146.200065 102.374417 147.163266 101.411216 148.346145 101.411216 C 149.537472 101.411216 150.500673 102.374417 150.500673 103.557295 Z M 92.446686 109.649119 C 92.446686 110.840447 91.483485 111.803648 90.300607 111.803648 C 89.109279 111.803648 88.146078 110.840447 88.146078 109.649119 C 88.146078 108.466241 89.109279 107.50304 90.300607 107.50304 C 91.483485 107.50304 92.446686 108.466241 92.446686 109.649119 Z M 105.348511 109.649119 C 105.348511 110.840447 104.38531 111.803648 103.202432 111.803648 C 102.011104 111.803648 101.047903 110.840447 101.047903 109.649119 C 101.047903 108.466241 102.011104 107.50304 103.202432 107.50304 C 104.38531 107.50304 105.348511 108.466241 105.348511 109.649119 Z M 118.250336 109.649119 C 118.250336 110.840447 117.287135 111.803648 116.095807 111.803648 C 114.912929 111.803648 113.949728 110.840447 113.949728 109.649119 C 113.949728 108.466241 114.912929 107.50304 116.095807 107.50304 C 117.287135 107.50304 118.250336 108.466241 118.250336 109.649119 Z M 131.152161 109.649119 C 131.152161 110.840447 130.18896 111.803648 128.997632 111.803648 C 127.814753 111.803648 126.851552 110.840447 126.851552 109.649119 C 126.851552 108.466241 127.814753 107.50304 128.997632 107.50304 C 130.18896 107.50304 131.152161 108.466241 131.152161 109.649119 Z M 144.053985 109.649119 C 144.053985 110.840447 143.090784 111.803648 141.899457 111.803648 C 140.716578 111.803648 139.753377 110.840447 139.753377 109.649119 C 139.753377 108.466241 140.716578 107.50304 141.899457 107.50304 C 143.090784 107.50304 144.053985 108.466241 144.053985 109.649119 Z M 98.901823 116.095807 C 98.901823 117.287135 97.938622 118.250336 96.747295 118.250336 C 95.564416 118.250336 94.601215 117.287135 94.601215 116.095807 C 94.601215 114.912929 95.564416 113.949728 96.747295 113.949728 C 97.938622 113.949728 98.901823 114.912929 98.901823 116.095807 Z M 111.803648 116.095807 C 111.803648 117.287135 110.840447 118.250336 109.649119 118.250336 C 108.466241 118.250336 107.50304 117.287135 107.50304 116.095807 C 107.50304 114.912929 108.466241 113.949728 109.649119 113.949728 C 110.840447 113.949728 111.803648 114.912929 111.803648 116.095807 Z M 124.697024 116.095807 C 124.697024 117.287135 123.733823 118.250336 122.550944 118.250336 C 121.359617 118.250336 120.396415 117.287135 120.396415 116.095807 C 120.396415 114.912929 121.359617 113.949728 122.550944 113.949728 C 123.733823 113.949728 124.697024 114.912929 124.697024 116.095807 Z M 137.598849 116.095807 C 137.598849 117.287135 136.635647 118.250336 135.452769 118.250336 C 134.261441 118.250336 133.29824 117.287135 133.29824 116.095807 C 133.29824 114.912929 134.261441 113.949728 135.452769 113.949728 C 136.635647 113.949728 137.598849 114.912929 137.598849 116.095807 Z M 105.348511 122.550944 C 105.348511 123.733823 104.38531 124.697024 103.202432 124.697024 C 102.011104 124.697024 101.047903 123.733823 101.047903 122.550944 C 101.047903 121.359617 102.011104 120.396415 103.202432 120.396415 C 104.38531 120.396415 105.348511 121.359617 105.348511 122.550944 Z M 118.250336 122.550944 C 118.250336 123.733823 117.287135 124.697024 116.095807 124.697024 C 114.912929 124.697024 113.949728 123.733823 113.949728 122.550944 C 113.949728 121.359617 114.912929 120.396415 116.095807 120.396415 C 117.287135 120.396415 118.250336 121.359617 118.250336 122.550944 Z M 131.152161 122.550944 C 131.152161 123.733823 130.18896 124.697024 128.997632 124.697024 C 127.814753 124.697024 126.851552 123.733823 126.851552 122.550944 C 126.851552 121.359617 127.814753 120.396415 128.997632 120.396415 C 130.18896 120.396415 131.152161 121.359617 131.152161 122.550944 Z M 131.152161 122.550944 " transform="matrix(0.462326,0,0,0.462326,0.24,0.24)"/>
<path style=" stroke:none;fill-rule:nonzero;fill:rgb(100%,100%,100%);fill-opacity:1;" d="M 26.085938 17.136719 C 13.46875 17.136719 3.222656 27.386719 3.222656 40 C 3.222656 52.613281 13.46875 62.863281 26.085938 62.863281 C 31.316406 62.863281 36.136719 61.082031 39.992188 58.121094 C 43.851562 61.089844 48.675781 62.863281 53.914062 62.863281 C 66.53125 62.863281 76.777344 52.613281 76.777344 40 C 76.777344 27.386719 66.53125 17.136719 53.914062 17.136719 C 48.675781 17.136719 43.851562 18.910156 39.992188 21.878906 C 36.136719 18.917969 31.316406 17.136719 26.085938 17.136719 Z M 26.085938 19.125 C 30.714844 19.125 34.972656 20.644531 38.433594 23.1875 C 33.898438 27.367188 31.054688 33.355469 31.054688 40 C 31.054688 46.644531 33.898438 52.632812 38.433594 56.8125 C 34.972656 59.355469 30.714844 60.875 26.085938 60.875 C 14.542969 60.875 5.210938 51.539062 5.210938 40 C 5.210938 28.460938 14.542969 19.125 26.085938 19.125 Z M 53.914062 19.125 C 63.808594 19.125 72.078125 25.988281 74.234375 35.21875 C 73.976562 35.398438 73.796875 35.683594 73.796875 36.023438 C 73.796875 36.492188 74.128906 36.871094 74.570312 36.972656 C 74.710938 37.960938 74.789062 38.972656 74.789062 40 C 74.789062 40.335938 74.78125 40.667969 74.765625 41 C 74.230469 41.015625 73.796875 41.449219 73.796875 41.988281 C 73.796875 42.460938 74.136719 42.839844 74.582031 42.9375 C 74.222656 45.480469 73.410156 47.875 72.222656 50.035156 C 72.097656 49.976562 71.957031 49.941406 71.808594 49.941406 C 71.257812 49.941406 70.8125 50.386719 70.8125 50.933594 C 70.8125 51.253906 70.972656 51.523438 71.207031 51.703125 C 70.761719 52.363281 70.269531 52.984375 69.753906 53.585938 C 69.617188 53.199219 69.257812 52.921875 68.824219 52.921875 C 68.277344 52.921875 67.832031 53.367188 67.832031 53.914062 C 67.832031 54.375 68.152344 54.746094 68.574219 54.859375 C 67.996094 55.433594 67.371094 55.960938 66.726562 56.464844 C 66.566406 56.136719 66.234375 55.902344 65.84375 55.902344 C 65.296875 55.902344 64.851562 56.347656 64.851562 56.898438 C 64.851562 57.167969 64.960938 57.410156 65.132812 57.589844 C 64.359375 58.082031 63.550781 58.527344 62.710938 58.917969 C 62.496094 58.953125 62.300781 59.035156 62.15625 59.183594 C 60.722656 59.796875 59.207031 60.253906 57.628906 60.539062 C 57.789062 60.363281 57.890625 60.136719 57.890625 59.878906 C 57.890625 59.332031 57.445312 58.886719 56.898438 58.886719 C 56.347656 58.886719 55.902344 59.332031 55.902344 59.878906 C 55.902344 60.246094 56.109375 60.550781 56.402344 60.722656 C 55.585938 60.820312 54.757812 60.875 53.914062 60.875 C 53.074219 60.875 52.246094 60.820312 51.429688 60.722656 C 51.722656 60.550781 51.929688 60.246094 51.929688 59.878906 C 51.929688 59.332031 51.484375 58.886719 50.933594 58.886719 C 50.386719 58.886719 49.941406 59.332031 49.941406 59.878906 C 49.941406 60.136719 50.042969 60.363281 50.203125 60.539062 C 48.625 60.253906 47.109375 59.796875 45.675781 59.183594 C 45.53125 59.035156 45.335938 58.953125 45.121094 58.917969 C 44.28125 58.527344 43.472656 58.082031 42.699219 57.589844 C 42.871094 57.410156 42.980469 57.167969 42.980469 56.898438 C 42.980469 56.347656 42.535156 55.902344 41.988281 55.902344 C 41.597656 55.902344 41.265625 56.136719 41.105469 56.464844 C 40.460938 55.960938 39.835938 55.433594 39.257812 54.859375 C 39.679688 54.746094 40 54.375 40 53.914062 C 40 53.367188 39.554688 52.921875 39.007812 52.921875 C 38.574219 52.921875 38.214844 53.199219 38.078125 53.585938 C 37.5625 52.984375 37.070312 52.363281 36.625 51.703125 C 36.859375 51.523438 37.019531 51.253906 37.019531 50.933594 C 37.019531 50.386719 36.574219 49.941406 36.023438 49.941406 C 35.875 49.941406 35.734375 49.976562 35.609375 50.035156 C 34.421875 47.875 33.609375 45.480469 33.25 42.9375 C 33.695312 42.839844 34.035156 42.460938 34.035156 41.988281 C 34.035156 41.449219 33.601562 41.015625 33.066406 41 C 33.050781 40.667969 33.042969 40.335938 33.042969 40 C 33.042969 38.972656 33.121094 37.960938 33.261719 36.972656 C 33.703125 36.871094 34.035156 36.492188 34.035156 36.023438 C 34.035156 35.683594 33.855469 35.398438 33.597656 35.21875 C 35.753906 25.988281 44.023438 19.125 53.914062 19.125 Z M 47.953125 20.121094 C 47.402344 20.121094 46.957031 20.566406 46.957031 21.113281 C 46.957031 21.664062 47.402344 22.109375 47.953125 22.109375 C 48.5 22.109375 48.945312 21.664062 48.945312 21.113281 C 48.945312 20.566406 48.5 20.121094 47.953125 20.121094 Z M 53.914062 20.121094 C 53.367188 20.121094 52.921875 20.566406 52.921875 21.113281 C 52.921875 21.664062 53.367188 22.109375 53.914062 22.109375 C 54.464844 22.109375 54.910156 21.664062 54.910156 21.113281 C 54.910156 20.566406 54.464844 20.121094 53.914062 20.121094 Z M 59.878906 20.121094 C 59.332031 20.121094 58.886719 20.566406 58.886719 21.113281 C 58.886719 21.664062 59.332031 22.109375 59.878906 22.109375 C 60.429688 22.109375 60.875 21.664062 60.875 21.113281 C 60.875 20.566406 60.429688 20.121094 59.878906 20.121094 Z M 44.96875 23.101562 C 44.421875 23.101562 43.976562 23.546875 43.976562 24.097656 C 43.976562 24.644531 44.421875 25.089844 44.96875 25.089844 C 45.519531 25.089844 45.964844 24.644531 45.964844 24.097656 C 45.964844 23.546875 45.519531 23.101562 44.96875 23.101562 Z M 50.933594 23.101562 C 50.386719 23.101562 49.941406 23.546875 49.941406 24.097656 C 49.941406 24.644531 50.386719 25.089844 50.933594 25.089844 C 51.484375 25.089844 51.929688 24.644531 51.929688 24.097656 C 51.929688 23.546875 51.484375 23.101562 50.933594 23.101562 Z M 56.898438 23.101562 C 56.347656 23.101562 55.902344 23.546875 55.902344 24.097656 C 55.902344 24.644531 56.347656 25.089844 56.898438 25.089844 C 57.445312 25.089844 57.890625 24.644531 57.890625 24.097656 C 57.890625 23.546875 57.445312 23.101562 56.898438 23.101562 Z M 62.863281 23.101562 C 62.3125 23.101562 61.867188 23.546875 61.867188 24.097656 C 61.867188 24.644531 62.3125 25.089844 62.863281 25.089844 C 63.410156 25.089844 63.855469 24.644531 63.855469 24.097656 C 63.855469 23.546875 63.410156 23.101562 62.863281 23.101562 Z M 41.988281 26.085938 C 41.4375 26.085938 40.992188 26.53125 40.992188 27.078125 C 40.992188 27.625 41.4375 28.070312 41.988281 28.070312 C 42.535156 28.070312 42.980469 27.625 42.980469 27.078125 C 42.980469 26.53125 42.535156 26.085938 41.988281 26.085938 Z M 47.953125 26.085938 C 47.402344 26.085938 46.957031 26.53125 46.957031 27.078125 C 46.957031 27.625 47.402344 28.070312 47.953125 28.070312 C 48.5 28.070312 48.945312 27.625 48.945312 27.078125 C 48.945312 26.53125 48.5 26.085938 47.953125 26.085938 Z M 53.914062 26.085938 C 53.367188 26.085938 52.921875 26.53125 52.921875 27.078125 C 52.921875 27.625 53.367188 28.070312 53.914062 28.070312 C 54.464844 28.070312 54.910156 27.625 54.910156 27.078125 C 54.910156 26.53125 54.464844 26.085938 53.914062 26.085938 Z M 59.878906 26.085938 C 59.332031 26.085938 58.886719 26.53125 58.886719 27.078125 C 58.886719 27.625 59.332031 28.070312 59.878906 28.070312 C 60.429688 28.070312 60.875 27.625 60.875 27.078125 C 60.875 26.53125 60.429688 26.085938 59.878906 26.085938 Z M 65.84375 26.085938 C 65.296875 26.085938 64.851562 26.53125 64.851562 27.078125 C 64.851562 27.625 65.296875 28.070312 65.84375 28.070312 C 66.394531 28.070312 66.839844 27.625 66.839844 27.078125 C 66.839844 26.53125 66.394531 26.085938 65.84375 26.085938 Z M 39.007812 29.066406 C 38.457031 29.066406 38.011719 29.511719 38.011719 30.058594 C 38.011719 30.609375 38.457031 31.054688 39.007812 31.054688 C 39.554688 31.054688 40 30.609375 40 30.058594 C 40 29.511719 39.554688 29.066406 39.007812 29.066406 Z M 44.96875 29.066406 C 44.421875 29.066406 43.976562 29.511719 43.976562 30.058594 C 43.976562 30.609375 44.421875 31.054688 44.96875 31.054688 C 45.519531 31.054688 45.964844 30.609375 45.964844 30.058594 C 45.964844 29.511719 45.519531 29.066406 44.96875 29.066406 Z M 50.933594 29.066406 C 50.386719 29.066406 49.941406 29.511719 49.941406 30.058594 C 49.941406 30.609375 50.386719 31.054688 50.933594 31.054688 C 51.484375 31.054688 51.929688 30.609375 51.929688 30.058594 C 51.929688 29.511719 51.484375 29.066406 50.933594 29.066406 Z M 56.898438 29.066406 C 56.347656 29.066406 55.902344 29.511719 55.902344 30.058594 C 55.902344 30.609375 56.347656 31.054688 56.898438 31.054688 C 57.445312 31.054688 57.890625 30.609375 57.890625 30.058594 C 57.890625 29.511719 57.445312 29.066406 56.898438 29.066406 Z M 62.863281 29.066406 C 62.3125 29.066406 61.867188 29.511719 61.867188 30.058594 C 61.867188 30.609375 62.3125 31.054688 62.863281 31.054688 C 63.410156 31.054688 63.855469 30.609375 63.855469 30.058594 C 63.855469 29.511719 63.410156 29.066406 62.863281 29.066406 Z M 68.824219 29.066406 C 68.277344 29.066406 67.832031 29.511719 67.832031 30.058594 C 67.832031 30.609375 68.277344 31.054688 68.824219 31.054688 C 69.375 31.054688 69.820312 30.609375 69.820312 30.058594 C 69.820312 29.511719 69.375 29.066406 68.824219 29.066406 Z M 36.023438 32.046875 C 35.476562 32.046875 35.03125 32.492188 35.03125 33.042969 C 35.03125 33.589844 35.476562 34.035156 36.023438 34.035156 C 36.574219 34.035156 37.019531 33.589844 37.019531 33.042969 C 37.019531 32.492188 36.574219 32.046875 36.023438 32.046875 Z M 41.988281 32.046875 C 41.4375 32.046875 40.992188 32.492188 40.992188 33.042969 C 40.992188 33.589844 41.4375 34.035156 41.988281 34.035156 C 42.535156 34.035156 42.980469 33.589844 42.980469 33.042969 C 42.980469 32.492188 42.535156 32.046875 41.988281 32.046875 Z M 47.953125 32.046875 C 47.402344 32.046875 46.957031 32.492188 46.957031 33.042969 C 46.957031 33.589844 47.402344 34.035156 47.953125 34.035156 C 48.5 34.035156 48.945312 33.589844 48.945312 33.042969 C 48.945312 32.492188 48.5 32.046875 47.953125 32.046875 Z M 53.914062 32.046875 C 53.367188 32.046875 52.921875 32.492188 52.921875 33.042969 C 52.921875 33.589844 53.367188 34.035156 53.914062 34.035156 C 54.464844 34.035156 54.910156 33.589844 54.910156 33.042969 C 54.910156 32.492188 54.464844 32.046875 53.914062 32.046875 Z M 59.878906 32.046875 C 59.332031 32.046875 58.886719 32.492188 58.886719 33.042969 C 58.886719 33.589844 59.332031 34.035156 59.878906 34.035156 C 60.429688 34.035156 60.875 33.589844 60.875 33.042969 C 60.875 32.492188 60.429688 32.046875 59.878906 32.046875 Z M 65.84375 32.046875 C 65.296875 32.046875 64.851562 32.492188 64.851562 33.042969 C 64.851562 33.589844 65.296875 34.035156 65.84375 34.035156 C 66.394531 34.035156 66.839844 33.589844 66.839844 33.042969 C 66.839844 32.492188 66.394531 32.046875 65.84375 32.046875 Z M 71.808594 32.046875 C 71.257812 32.046875 70.8125 32.492188 70.8125 33.042969 C 70.8125 33.589844 71.257812 34.035156 71.808594 34.035156 C 72.355469 34.035156 72.800781 33.589844 72.800781 33.042969 C 72.800781 32.492188 72.355469 32.046875 71.808594 32.046875 Z M 39.007812 35.03125 C 38.457031 35.03125 38.011719 35.476562 38.011719 36.023438 C 38.011719 36.574219 38.457031 37.019531 39.007812 37.019531 C 39.554688 37.019531 40 36.574219 40 36.023438 C 40 35.476562 39.554688 35.03125 39.007812 35.03125 Z M 44.96875 35.03125 C 44.421875 35.03125 43.976562 35.476562 43.976562 36.023438 C 43.976562 36.574219 44.421875 37.019531 44.96875 37.019531 C 45.519531 37.019531 45.964844 36.574219 45.964844 36.023438 C 45.964844 35.476562 45.519531 35.03125 44.96875 35.03125 Z M 50.933594 35.03125 C 50.386719 35.03125 49.941406 35.476562 49.941406 36.023438 C 49.941406 36.574219 50.386719 37.019531 50.933594 37.019531 C 51.484375 37.019531 51.929688 36.574219 51.929688 36.023438 C 51.929688 35.476562 51.484375 35.03125 50.933594 35.03125 Z M 56.898438 35.03125 C 56.347656 35.03125 55.902344 35.476562 55.902344 36.023438 C 55.902344 36.574219 56.347656 37.019531 56.898438 37.019531 C 57.445312 37.019531 57.890625 36.574219 57.890625 36.023438 C 57.890625 35.476562 57.445312 35.03125 56.898438 35.03125 Z M 62.863281 35.03125 C 62.3125 35.03125 61.867188 35.476562 61.867188 36.023438 C 61.867188 36.574219 62.3125 37.019531 62.863281 37.019531 C 63.410156 37.019531 63.855469 36.574219 63.855469 36.023438 C 63.855469 35.476562 63.410156 35.03125 62.863281 35.03125 Z M 68.824219 35.03125 C 68.277344 35.03125 67.832031 35.476562 67.832031 36.023438 C 67.832031 36.574219 68.277344 37.019531 68.824219 37.019531 C 69.375 37.019531 69.820312 36.574219 69.820312 36.023438 C 69.820312 35.476562 69.375 35.03125 68.824219 35.03125 Z M 36.023438 38.011719 C 35.476562 38.011719 35.03125 38.457031 35.03125 39.007812 C 35.03125 39.554688 35.476562 40 36.023438 40 C 36.574219 40 37.019531 39.554688 37.019531 39.007812 C 37.019531 38.457031 36.574219 38.011719 36.023438 38.011719 Z M 41.988281 38.011719 C 41.4375 38.011719 40.992188 38.457031 40.992188 39.007812 C 40.992188 39.554688 41.4375 40 41.988281 40 C 42.535156 40 42.980469 39.554688 42.980469 39.007812 C 42.980469 38.457031 42.535156 38.011719 41.988281 38.011719 Z M 47.953125 38.011719 C 47.402344 38.011719 46.957031 38.457031 46.957031 39.007812 C 46.957031 39.554688 47.402344 40 47.953125 40 C 48.5 40 48.945312 39.554688 48.945312 39.007812 C 48.945312 38.457031 48.5 38.011719 47.953125 38.011719 Z M 53.914062 38.011719 C 53.367188 38.011719 52.921875 38.457031 52.921875 39.007812 C 52.921875 39.554688 53.367188 40 53.914062 40 C 54.464844 40 54.910156 39.554688 54.910156 39.007812 C 54.910156 38.457031 54.464844 38.011719 53.914062 38.011719 Z M 59.878906 38.011719 C 59.332031 38.011719 58.886719 38.457031 58.886719 39.007812 C 58.886719 39.554688 59.332031 40 59.878906 40 C 60.429688 40 60.875 39.554688 60.875 39.007812 C 60.875 38.457031 60.429688 38.011719 59.878906 38.011719 Z M 65.84375 38.011719 C 65.296875 38.011719 64.851562 38.457031 64.851562 39.007812 C 64.851562 39.554688 65.296875 40 65.84375 40 C 66.394531 40 66.839844 39.554688 66.839844 39.007812 C 66.839844 38.457031 66.394531 38.011719 65.84375 38.011719 Z M 71.808594 38.011719 C 71.257812 38.011719 70.8125 38.457031 70.8125 39.007812 C 70.8125 39.554688 71.257812 40 71.808594 40 C 72.355469 40 72.800781 39.554688 72.800781 39.007812 C 72.800781 38.457031 72.355469 38.011719 71.808594 38.011719 Z M 39.007812 40.992188 C 38.457031 40.992188 38.011719 41.4375 38.011719 41.988281 C 38.011719 42.535156 38.457031 42.980469 39.007812 42.980469 C 39.554688 42.980469 40 42.535156 40 41.988281 C 40 41.4375 39.554688 40.992188 39.007812 40.992188 Z M 44.96875 40.992188 C 44.421875 40.992188 43.976562 41.4375 43.976562 41.988281 C 43.976562 42.535156 44.421875 42.980469 44.96875 42.980469 C 45.519531 42.980469 45.964844 42.535156 45.964844 41.988281 C 45.964844 41.4375 45.519531 40.992188 44.96875 40.992188 Z M 50.933594 40.992188 C 50.386719 40.992188 49.941406 41.4375 49.941406 41.988281 C 49.941406 42.535156 50.386719 42.980469 50.933594 42.980469 C 51.484375 42.980469 51.929688 42.535156 51.929688 41.988281 C 51.929688 41.4375 51.484375 40.992188 50.933594 40.992188 Z M 56.898438 40.992188 C 56.347656 40.992188 55.902344 41.4375 55.902344 41.988281 C 55.902344 42.535156 56.347656 42.980469 56.898438 42.980469 C 57.445312 42.980469 57.890625 42.535156 57.890625 41.988281 C 57.890625 41.4375 57.445312 40.992188 56.898438 40.992188 Z M 62.863281 40.992188 C 62.3125 40.992188 61.867188 41.4375 61.867188 41.988281 C 61.867188 42.535156 62.3125 42.980469 62.863281 42.980469 C 63.410156 42.980469 63.855469 42.535156 63.855469 41.988281 C 63.855469 41.4375 63.410156 40.992188 62.863281 40.992188 Z M 68.824219 40.992188 C 68.277344 40.992188 67.832031 41.4375 67.832031 41.988281 C 67.832031 42.535156 68.277344 42.980469 68.824219 42.980469 C 69.375 42.980469 69.820312 42.535156 69.820312 41.988281 C 69.820312 41.4375 69.375 40.992188 68.824219 40.992188 Z M 36.023438 43.976562 C 35.476562 43.976562 35.03125 44.421875 35.03125 44.96875 C 35.03125 45.519531 35.476562 45.964844 36.023438 45.964844 C 36.574219 45.964844 37.019531 45.519531 37.019531 44.96875 C 37.019531 44.421875 36.574219 43.976562 36.023438 43.976562 Z M 41.988281 43.976562 C 41.4375 43.976562 40.992188 44.421875 40.992188 44.96875 C 40.992188 45.519531 41.4375 45.964844 41.988281 45.964844 C 42.535156 45.964844 42.980469 45.519531 42.980469 44.96875 C 42.980469 44.421875 42.535156 43.976562 41.988281 43.976562 Z M 47.953125 43.976562 C 47.402344 43.976562 46.957031 44.421875 46.957031 44.96875 C 46.957031 45.519531 47.402344 45.964844 47.953125 45.964844 C 48.5 45.964844 48.945312 45.519531 48.945312 44.96875 C 48.945312 44.421875 48.5 43.976562 47.953125 43.976562 Z M 53.914062 43.976562 C 53.367188 43.976562 52.921875 44.421875 52.921875 44.96875 C 52.921875 45.519531 53.367188 45.964844 53.914062 45.964844 C 54.464844 45.964844 54.910156 45.519531 54.910156 44.96875 C 54.910156 44.421875 54.464844 43.976562 53.914062 43.976562 Z M 59.878906 43.976562 C 59.332031 43.976562 58.886719 44.421875 58.886719 44.96875 C 58.886719 45.519531 59.332031 45.964844 59.878906 45.964844 C 60.429688 45.964844 60.875 45.519531 60.875 44.96875 C 60.875 44.421875 60.429688 43.976562 59.878906 43.976562 Z M 65.84375 44.144531 C 65.296875 44.144531 64.851562 44.585938 64.851562 45.136719 C 64.851562 45.6875 65.296875 46.132812 65.84375 46.132812 C 66.394531 46.132812 66.839844 45.6875 66.839844 45.136719 C 66.839844 44.589844 66.394531 44.144531 65.84375 44.144531 Z M 71.808594 44.144531 C 71.257812 44.144531 70.8125 44.585938 70.8125 45.136719 C 70.8125 45.6875 71.257812 46.132812 71.808594 46.132812 C 72.355469 46.132812 72.800781 45.6875 72.800781 45.136719 C 72.800781 44.589844 72.355469 44.144531 71.808594 44.144531 Z M 39.007812 46.957031 C 38.457031 46.957031 38.011719 47.402344 38.011719 47.953125 C 38.011719 48.5 38.457031 48.945312 39.007812 48.945312 C 39.554688 48.945312 40 48.5 40 47.953125 C 40 47.402344 39.554688 46.957031 39.007812 46.957031 Z M 44.96875 46.957031 C 44.421875 46.957031 43.976562 47.402344 43.976562 47.953125 C 43.976562 48.5 44.421875 48.945312 44.96875 48.945312 C 45.519531 48.945312 45.964844 48.5 45.964844 47.953125 C 45.964844 47.402344 45.519531 46.957031 44.96875 46.957031 Z M 50.933594 46.957031 C 50.386719 46.957031 49.941406 47.402344 49.941406 47.953125 C 49.941406 48.5 50.386719 48.945312 50.933594 48.945312 C 51.484375 48.945312 51.929688 48.5 51.929688 47.953125 C 51.929688 47.402344 51.484375 46.957031 50.933594 46.957031 Z M 56.898438 46.957031 C 56.347656 46.957031 55.902344 47.402344 55.902344 47.953125 C 55.902344 48.5 56.347656 48.945312 56.898438 48.945312 C 57.445312 48.945312 57.890625 48.5 57.890625 47.953125 C 57.890625 47.402344 57.445312 46.957031 56.898438 46.957031 Z M 62.863281 46.957031 C 62.3125 46.957031 61.867188 47.402344 61.867188 47.953125 C 61.867188 48.5 62.3125 48.945312 62.863281 48.945312 C 63.410156 48.945312 63.855469 48.5 63.855469 47.953125 C 63.855469 47.402344 63.410156 46.957031 62.863281 46.957031 Z M 68.824219 47.125 C 68.277344 47.125 67.832031 47.570312 67.832031 48.117188 C 67.832031 48.667969 68.277344 49.113281 68.824219 49.113281 C 69.375 49.113281 69.820312 48.667969 69.820312 48.117188 C 69.820312 47.570312 69.375 47.125 68.824219 47.125 Z M 41.988281 49.941406 C 41.4375 49.941406 40.992188 50.386719 40.992188 50.933594 C 40.992188 51.484375 41.4375 51.929688 41.988281 51.929688 C 42.535156 51.929688 42.980469 51.484375 42.980469 50.933594 C 42.980469 50.386719 42.535156 49.941406 41.988281 49.941406 Z M 47.953125 49.941406 C 47.402344 49.941406 46.957031 50.386719 46.957031 50.933594 C 46.957031 51.484375 47.402344 51.929688 47.953125 51.929688 C 48.5 51.929688 48.945312 51.484375 48.945312 50.933594 C 48.945312 50.386719 48.5 49.941406 47.953125 49.941406 Z M 53.914062 49.941406 C 53.367188 49.941406 52.921875 50.386719 52.921875 50.933594 C 52.921875 51.484375 53.367188 51.929688 53.914062 51.929688 C 54.464844 51.929688 54.910156 51.484375 54.910156 50.933594 C 54.910156 50.386719 54.464844 49.941406 53.914062 49.941406 Z M 59.878906 49.941406 C 59.332031 49.941406 58.886719 50.386719 58.886719 50.933594 C 58.886719 51.484375 59.332031 51.929688 59.878906 51.929688 C 60.429688 51.929688 60.875 51.484375 60.875 50.933594 C 60.875 50.386719 60.429688 49.941406 59.878906 49.941406 Z M 65.84375 49.941406 C 65.296875 49.941406 64.851562 50.386719 64.851562 50.933594 C 64.851562 51.484375 65.296875 51.929688 65.84375 51.929688 C 66.394531 51.929688 66.839844 51.484375 66.839844 50.933594 C 66.839844 50.386719 66.394531 49.941406 65.84375 49.941406 Z M 44.96875 52.921875 C 44.421875 52.921875 43.976562 53.367188 43.976562 53.914062 C 43.976562 54.464844 44.421875 54.910156 44.96875 54.910156 C 45.519531 54.910156 45.964844 54.464844 45.964844 53.914062 C 45.964844 53.367188 45.519531 52.921875 44.96875 52.921875 Z M 50.933594 52.921875 C 50.386719 52.921875 49.941406 53.367188 49.941406 53.914062 C 49.941406 54.464844 50.386719 54.910156 50.933594 54.910156 C 51.484375 54.910156 51.929688 54.464844 51.929688 53.914062 C 51.929688 53.367188 51.484375 52.921875 50.933594 52.921875 Z M 56.898438 52.921875 C 56.347656 52.921875 55.902344 53.367188 55.902344 53.914062 C 55.902344 54.464844 56.347656 54.910156 56.898438 54.910156 C 57.445312 54.910156 57.890625 54.464844 57.890625 53.914062 C 57.890625 53.367188 57.445312 52.921875 56.898438 52.921875 Z M 62.863281 52.921875 C 62.3125 52.921875 61.867188 53.367188 61.867188 53.914062 C 61.867188 54.464844 62.3125 54.910156 62.863281 54.910156 C 63.410156 54.910156 63.855469 54.464844 63.855469 53.914062 C 63.855469 53.367188 63.410156 52.921875 62.863281 52.921875 Z M 47.953125 55.902344 C 47.402344 55.902344 46.957031 56.347656 46.957031 56.898438 C 46.957031 57.445312 47.402344 57.890625 47.953125 57.890625 C 48.5 57.890625 48.945312 57.445312 48.945312 56.898438 C 48.945312 56.347656 48.5 55.902344 47.953125 55.902344 Z M 53.914062 55.902344 C 53.367188 55.902344 52.921875 56.347656 52.921875 56.898438 C 52.921875 57.445312 53.367188 57.890625 53.914062 57.890625 C 54.464844 57.890625 54.910156 57.445312 54.910156 56.898438 C 54.910156 56.347656 54.464844 55.902344 53.914062 55.902344 Z M 59.878906 55.902344 C 59.332031 55.902344 58.886719 56.347656 58.886719 56.898438 C 58.886719 57.445312 59.332031 57.890625 59.878906 57.890625 C 60.429688 57.890625 60.875 57.445312 60.875 56.898438 C 60.875 56.347656 60.429688 55.902344 59.878906 55.902344 Z M 59.878906 55.902344 "/>
</g>
</svg>
