<?xml version="1.0" encoding="utf-8"?>
<!-- Generator: Adobe Illustrator 23.0.3, SVG Export Plug-In . SVG Version: 6.00 Build 0)  -->
<svg version="1.1" id="Calque_1" width="25px" xmlns:svgjs="http://svgjs.com/svgjs"
	 xmlns="http://www.w3.org/2000/svg" xmlns:xlink="http://www.w3.org/1999/xlink" x="0px" y="0px" viewBox="0 0 512 512"
	 style="enable-background:new 0 0 512 512;" xml:space="preserve">
<style type="text/css">
	.st0{fill:#FFFFFF;stroke:#FFFFFF;stroke-miterlimit:10;}
	.st1{fill:#A3A1A1;}
</style>
<path class="st0" d="M328,448H88c-20.43,0-37-16.57-37-37V37C51,16.57,67.57,0,88,0h240c20.43,0,37,16.57,37,37v374
	C365,431.43,348.43,448,328,448z"/>
<rect x="160" y="96" class="st0" width="298.67" height="384"/>
<g>
	<path class="st1" d="M432,512H186.67C154.3,512,128,485.7,128,453.33V122.67C128,90.3,154.3,64,186.67,64H432
		c32.36,0,58.67,26.3,58.67,58.67v330.67C490.67,485.7,464.36,512,432,512z M186.67,96c-14.7,0-26.67,11.97-26.67,26.67v330.67
		c0,14.7,11.97,26.67,26.67,26.67H432c14.7,0,26.67-11.97,26.67-26.67V122.67C458.67,107.97,446.7,96,432,96H186.67z"/>
	<path class="st1" d="M282.67,261.33H208c-8.83,0-16-7.17-16-16v-74.67c0-8.83,7.17-16,16-16h74.67c8.83,0,16,7.17,16,16v74.67
		C298.67,254.17,291.5,261.33,282.67,261.33z M224,229.33h42.67v-42.67H224V229.33z"/>
	<path class="st1" d="M416,256h-64c-8.83,0-16-7.17-16-16c0-8.83,7.17-16,16-16h64c8.83,0,16,7.17,16,16
		C432,248.83,424.83,256,416,256z"/>
	<path class="st1" d="M416,192h-64c-8.83,0-16-7.17-16-16c0-8.83,7.17-16,16-16h64c8.83,0,16,7.17,16,16S424.83,192,416,192z"/>
	<path class="st1" d="M410.67,426.67H208c-8.83,0-16-7.17-16-16c0-8.83,7.17-16,16-16h202.67c8.83,0,16,7.17,16,16
		C426.67,419.5,419.5,426.67,410.67,426.67z"/>
	<path class="st1" d="M410.67,341.33H208c-8.83,0-16-7.17-16-16s7.17-16,16-16h202.67c8.83,0,16,7.17,16,16
		S419.5,341.33,410.67,341.33z"/>
	<path class="st1" d="M80,448c-32.36,0-58.67-26.3-58.67-58.67V58.67C21.33,26.3,47.64,0,80,0h245.33c8.83,0,16,7.17,16,16
		s-7.17,16-16,16H80c-14.7,0-26.67,11.97-26.67,26.67v330.67C53.33,404.03,65.3,416,80,416c8.83,0,16,7.17,16,16
		C96,440.83,88.83,448,80,448z"/>
</g>
</svg>
